<mxfile host="app.diagrams.net" modified="2023-05-17T06:05:40.492Z" agent="Mozilla/5.0 (Windows NT 10.0; Win64; x64) AppleWebKit/537.36 (KHTML, like Gecko) Chrome/113.0.0.0 Safari/537.36" etag="BTpJa3049B0kxphp2d1A" version="21.2.1" type="github">
  <diagram name="Page-1" id="xDG5aaSrkRS24iAlbB1-">
    <mxGraphModel dx="2025" dy="1047" grid="1" gridSize="10" guides="1" tooltips="1" connect="1" arrows="1" fold="1" page="1" pageScale="1" pageWidth="850" pageHeight="1100" math="0" shadow="0">
      <root>
        <mxCell id="0" />
        <mxCell id="1" parent="0" />
        <mxCell id="gf5TVTyWnI4lNd_eXOsV-23" style="edgeStyle=orthogonalEdgeStyle;rounded=0;orthogonalLoop=1;jettySize=auto;html=1;entryX=0.019;entryY=0.583;entryDx=0;entryDy=0;entryPerimeter=0;" edge="1" parent="1" source="gf5TVTyWnI4lNd_eXOsV-3" target="gf5TVTyWnI4lNd_eXOsV-4">
          <mxGeometry relative="1" as="geometry" />
        </mxCell>
        <mxCell id="gf5TVTyWnI4lNd_eXOsV-24" style="edgeStyle=orthogonalEdgeStyle;rounded=0;orthogonalLoop=1;jettySize=auto;html=1;" edge="1" parent="1" source="gf5TVTyWnI4lNd_eXOsV-3" target="gf5TVTyWnI4lNd_eXOsV-5">
          <mxGeometry relative="1" as="geometry" />
        </mxCell>
        <mxCell id="gf5TVTyWnI4lNd_eXOsV-3" value="&lt;font style=&quot;font-size: 30px;&quot;&gt;router&lt;/font&gt;" style="rounded=0;whiteSpace=wrap;html=1;fillColor=#d5e8d4;strokeColor=#82b366;" vertex="1" parent="1">
          <mxGeometry x="660" y="275" width="120" height="270" as="geometry" />
        </mxCell>
        <mxCell id="gf5TVTyWnI4lNd_eXOsV-9" style="edgeStyle=orthogonalEdgeStyle;rounded=0;orthogonalLoop=1;jettySize=auto;html=1;" edge="1" parent="1" source="gf5TVTyWnI4lNd_eXOsV-4" target="gf5TVTyWnI4lNd_eXOsV-6">
          <mxGeometry relative="1" as="geometry" />
        </mxCell>
        <mxCell id="gf5TVTyWnI4lNd_eXOsV-10" style="edgeStyle=orthogonalEdgeStyle;rounded=0;orthogonalLoop=1;jettySize=auto;html=1;" edge="1" parent="1" source="gf5TVTyWnI4lNd_eXOsV-4" target="gf5TVTyWnI4lNd_eXOsV-7">
          <mxGeometry relative="1" as="geometry" />
        </mxCell>
        <mxCell id="gf5TVTyWnI4lNd_eXOsV-11" style="edgeStyle=orthogonalEdgeStyle;rounded=0;orthogonalLoop=1;jettySize=auto;html=1;" edge="1" parent="1" source="gf5TVTyWnI4lNd_eXOsV-4" target="gf5TVTyWnI4lNd_eXOsV-8">
          <mxGeometry relative="1" as="geometry">
            <Array as="points">
              <mxPoint x="1060" y="625" />
              <mxPoint x="1060" y="805" />
            </Array>
          </mxGeometry>
        </mxCell>
        <mxCell id="gf5TVTyWnI4lNd_eXOsV-4" value="&lt;font style=&quot;font-size: 30px;&quot;&gt;modules&lt;br&gt;router&lt;br&gt;&lt;/font&gt;" style="rounded=0;whiteSpace=wrap;html=1;fillColor=#e1d5e7;strokeColor=#9673a6;" vertex="1" parent="1">
          <mxGeometry x="890" y="490" width="120" height="270" as="geometry" />
        </mxCell>
        <mxCell id="gf5TVTyWnI4lNd_eXOsV-37" style="edgeStyle=orthogonalEdgeStyle;rounded=0;orthogonalLoop=1;jettySize=auto;html=1;" edge="1" parent="1" source="gf5TVTyWnI4lNd_eXOsV-5" target="gf5TVTyWnI4lNd_eXOsV-36">
          <mxGeometry relative="1" as="geometry" />
        </mxCell>
        <mxCell id="gf5TVTyWnI4lNd_eXOsV-5" value="&lt;font style=&quot;font-size: 30px;&quot;&gt;core&lt;br&gt;router&lt;br&gt;&lt;/font&gt;" style="rounded=0;whiteSpace=wrap;html=1;fillColor=#dae8fc;strokeColor=#6c8ebf;" vertex="1" parent="1">
          <mxGeometry x="890" y="115" width="120" height="270" as="geometry" />
        </mxCell>
        <mxCell id="gf5TVTyWnI4lNd_eXOsV-15" style="edgeStyle=orthogonalEdgeStyle;rounded=0;orthogonalLoop=1;jettySize=auto;html=1;" edge="1" parent="1" source="gf5TVTyWnI4lNd_eXOsV-6" target="gf5TVTyWnI4lNd_eXOsV-14">
          <mxGeometry relative="1" as="geometry" />
        </mxCell>
        <mxCell id="gf5TVTyWnI4lNd_eXOsV-6" value="&lt;font style=&quot;font-size: 30px;&quot;&gt;module&lt;br&gt;router&lt;br&gt;&lt;/font&gt;" style="rounded=1;whiteSpace=wrap;html=1;fillColor=#e1d5e7;strokeColor=#9673a6;" vertex="1" parent="1">
          <mxGeometry x="1110" y="395" width="120" height="120" as="geometry" />
        </mxCell>
        <mxCell id="gf5TVTyWnI4lNd_eXOsV-30" style="edgeStyle=orthogonalEdgeStyle;rounded=0;orthogonalLoop=1;jettySize=auto;html=1;" edge="1" parent="1" source="gf5TVTyWnI4lNd_eXOsV-7" target="gf5TVTyWnI4lNd_eXOsV-27">
          <mxGeometry relative="1" as="geometry" />
        </mxCell>
        <mxCell id="gf5TVTyWnI4lNd_eXOsV-7" value="&lt;font style=&quot;font-size: 30px;&quot;&gt;module&lt;br&gt;router&lt;br&gt;&lt;/font&gt;" style="rounded=1;whiteSpace=wrap;html=1;fillColor=#e1d5e7;strokeColor=#9673a6;" vertex="1" parent="1">
          <mxGeometry x="1110" y="565" width="120" height="120" as="geometry" />
        </mxCell>
        <mxCell id="gf5TVTyWnI4lNd_eXOsV-8" value="&lt;font style=&quot;font-size: 30px;&quot;&gt;module&lt;br&gt;router&lt;br&gt;&lt;/font&gt;" style="rounded=1;whiteSpace=wrap;html=1;fillColor=#e1d5e7;strokeColor=#9673a6;" vertex="1" parent="1">
          <mxGeometry x="1110" y="745" width="120" height="120" as="geometry" />
        </mxCell>
        <mxCell id="gf5TVTyWnI4lNd_eXOsV-12" value="" style="endArrow=none;dashed=1;html=1;dashPattern=1 3;strokeWidth=2;rounded=0;" edge="1" parent="1">
          <mxGeometry width="50" height="50" relative="1" as="geometry">
            <mxPoint x="1060" y="805" as="sourcePoint" />
            <mxPoint x="1110" y="985" as="targetPoint" />
            <Array as="points">
              <mxPoint x="1060" y="985" />
            </Array>
          </mxGeometry>
        </mxCell>
        <mxCell id="gf5TVTyWnI4lNd_eXOsV-26" style="edgeStyle=orthogonalEdgeStyle;rounded=0;orthogonalLoop=1;jettySize=auto;html=1;" edge="1" parent="1" source="gf5TVTyWnI4lNd_eXOsV-14" target="gf5TVTyWnI4lNd_eXOsV-25">
          <mxGeometry relative="1" as="geometry" />
        </mxCell>
        <mxCell id="gf5TVTyWnI4lNd_eXOsV-14" value="&lt;font style=&quot;font-size: 30px;&quot;&gt;controllers&lt;br&gt;&lt;/font&gt;" style="rounded=1;whiteSpace=wrap;html=1;glass=0;fillColor=#fff2cc;strokeColor=#d6b656;" vertex="1" parent="1">
          <mxGeometry x="1360" y="410" width="190" height="90" as="geometry" />
        </mxCell>
        <mxCell id="gf5TVTyWnI4lNd_eXOsV-22" value="" style="endArrow=none;dashed=1;html=1;dashPattern=1 3;strokeWidth=2;rounded=0;exitX=1;exitY=0.5;exitDx=0;exitDy=0;" edge="1" parent="1" source="gf5TVTyWnI4lNd_eXOsV-8">
          <mxGeometry width="50" height="50" relative="1" as="geometry">
            <mxPoint x="1280" y="695" as="sourcePoint" />
            <mxPoint x="1360" y="805" as="targetPoint" />
          </mxGeometry>
        </mxCell>
        <mxCell id="gf5TVTyWnI4lNd_eXOsV-33" style="edgeStyle=orthogonalEdgeStyle;rounded=0;orthogonalLoop=1;jettySize=auto;html=1;" edge="1" parent="1" source="gf5TVTyWnI4lNd_eXOsV-25" target="gf5TVTyWnI4lNd_eXOsV-31">
          <mxGeometry relative="1" as="geometry" />
        </mxCell>
        <mxCell id="gf5TVTyWnI4lNd_eXOsV-34" style="edgeStyle=orthogonalEdgeStyle;rounded=0;orthogonalLoop=1;jettySize=auto;html=1;fillColor=#d5e8d4;strokeColor=#82b366;" edge="1" parent="1" source="gf5TVTyWnI4lNd_eXOsV-25" target="gf5TVTyWnI4lNd_eXOsV-28">
          <mxGeometry relative="1" as="geometry" />
        </mxCell>
        <mxCell id="gf5TVTyWnI4lNd_eXOsV-41" style="edgeStyle=orthogonalEdgeStyle;rounded=0;orthogonalLoop=1;jettySize=auto;html=1;" edge="1" parent="1" source="gf5TVTyWnI4lNd_eXOsV-25" target="gf5TVTyWnI4lNd_eXOsV-38">
          <mxGeometry relative="1" as="geometry" />
        </mxCell>
        <mxCell id="gf5TVTyWnI4lNd_eXOsV-42" value="" style="edgeStyle=orthogonalEdgeStyle;rounded=0;orthogonalLoop=1;jettySize=auto;html=1;" edge="1" parent="1" source="gf5TVTyWnI4lNd_eXOsV-25" target="gf5TVTyWnI4lNd_eXOsV-38">
          <mxGeometry relative="1" as="geometry" />
        </mxCell>
        <mxCell id="gf5TVTyWnI4lNd_eXOsV-25" value="&lt;font style=&quot;font-size: 30px;&quot;&gt;services&lt;br&gt;&lt;/font&gt;" style="rounded=0;whiteSpace=wrap;html=1;fillColor=#d5e8d4;strokeColor=#82b366;" vertex="1" parent="1">
          <mxGeometry x="1640" y="410" width="190" height="90" as="geometry" />
        </mxCell>
        <mxCell id="gf5TVTyWnI4lNd_eXOsV-27" value="&lt;font style=&quot;font-size: 30px;&quot;&gt;controllers&lt;br&gt;&lt;/font&gt;" style="rounded=1;whiteSpace=wrap;html=1;glass=0;fillColor=#fff2cc;strokeColor=#d6b656;" vertex="1" parent="1">
          <mxGeometry x="1360" y="580" width="190" height="90" as="geometry" />
        </mxCell>
        <mxCell id="gf5TVTyWnI4lNd_eXOsV-32" style="edgeStyle=orthogonalEdgeStyle;rounded=0;orthogonalLoop=1;jettySize=auto;html=1;" edge="1" parent="1" source="gf5TVTyWnI4lNd_eXOsV-28" target="gf5TVTyWnI4lNd_eXOsV-31">
          <mxGeometry relative="1" as="geometry" />
        </mxCell>
        <mxCell id="gf5TVTyWnI4lNd_eXOsV-35" style="edgeStyle=orthogonalEdgeStyle;rounded=0;orthogonalLoop=1;jettySize=auto;html=1;fillColor=#d5e8d4;strokeColor=#82b366;" edge="1" parent="1" source="gf5TVTyWnI4lNd_eXOsV-28" target="gf5TVTyWnI4lNd_eXOsV-25">
          <mxGeometry relative="1" as="geometry" />
        </mxCell>
        <mxCell id="gf5TVTyWnI4lNd_eXOsV-45" style="edgeStyle=orthogonalEdgeStyle;rounded=0;orthogonalLoop=1;jettySize=auto;html=1;exitX=0.75;exitY=0;exitDx=0;exitDy=0;entryX=0.75;entryY=1;entryDx=0;entryDy=0;shadow=0;startArrow=classic;startFill=1;" edge="1" parent="1" source="gf5TVTyWnI4lNd_eXOsV-28" target="gf5TVTyWnI4lNd_eXOsV-38">
          <mxGeometry relative="1" as="geometry">
            <mxPoint x="1770" y="365" as="targetPoint" />
            <Array as="points">
              <mxPoint x="1782" y="525" />
              <mxPoint x="1880" y="525" />
              <mxPoint x="1880" y="385" />
              <mxPoint x="1783" y="385" />
            </Array>
          </mxGeometry>
        </mxCell>
        <mxCell id="gf5TVTyWnI4lNd_eXOsV-28" value="&lt;font style=&quot;font-size: 30px;&quot;&gt;services&lt;br&gt;&lt;/font&gt;" style="rounded=0;whiteSpace=wrap;html=1;fillColor=#d5e8d4;strokeColor=#82b366;" vertex="1" parent="1">
          <mxGeometry x="1640" y="580" width="190" height="90" as="geometry" />
        </mxCell>
        <mxCell id="gf5TVTyWnI4lNd_eXOsV-29" style="edgeStyle=orthogonalEdgeStyle;rounded=0;orthogonalLoop=1;jettySize=auto;html=1;" edge="1" source="gf5TVTyWnI4lNd_eXOsV-27" target="gf5TVTyWnI4lNd_eXOsV-28" parent="1">
          <mxGeometry relative="1" as="geometry" />
        </mxCell>
        <mxCell id="gf5TVTyWnI4lNd_eXOsV-31" value="&lt;font style=&quot;font-size: 30px;&quot;&gt;DB&lt;/font&gt;" style="shape=cylinder3;whiteSpace=wrap;html=1;boundedLbl=1;backgroundOutline=1;size=15;fillColor=#d80073;fontColor=#ffffff;strokeColor=#A50040;" vertex="1" parent="1">
          <mxGeometry x="2000" y="445" width="120" height="180" as="geometry" />
        </mxCell>
        <mxCell id="gf5TVTyWnI4lNd_eXOsV-39" style="edgeStyle=orthogonalEdgeStyle;rounded=0;orthogonalLoop=1;jettySize=auto;html=1;" edge="1" parent="1" source="gf5TVTyWnI4lNd_eXOsV-36" target="gf5TVTyWnI4lNd_eXOsV-38">
          <mxGeometry relative="1" as="geometry" />
        </mxCell>
        <mxCell id="gf5TVTyWnI4lNd_eXOsV-36" value="&lt;font style=&quot;font-size: 30px;&quot;&gt;controllers&lt;br&gt;&lt;/font&gt;" style="rounded=1;whiteSpace=wrap;html=1;glass=0;fillColor=#dae8fc;strokeColor=#6c8ebf;" vertex="1" parent="1">
          <mxGeometry x="1360" y="205" width="190" height="90" as="geometry" />
        </mxCell>
        <mxCell id="gf5TVTyWnI4lNd_eXOsV-43" style="edgeStyle=orthogonalEdgeStyle;rounded=0;orthogonalLoop=1;jettySize=auto;html=1;" edge="1" parent="1" source="gf5TVTyWnI4lNd_eXOsV-38" target="gf5TVTyWnI4lNd_eXOsV-25">
          <mxGeometry relative="1" as="geometry" />
        </mxCell>
        <mxCell id="gf5TVTyWnI4lNd_eXOsV-46" style="edgeStyle=orthogonalEdgeStyle;rounded=0;orthogonalLoop=1;jettySize=auto;html=1;" edge="1" parent="1" source="gf5TVTyWnI4lNd_eXOsV-38" target="gf5TVTyWnI4lNd_eXOsV-31">
          <mxGeometry relative="1" as="geometry" />
        </mxCell>
        <mxCell id="gf5TVTyWnI4lNd_eXOsV-38" value="&lt;font style=&quot;font-size: 30px;&quot;&gt;services&lt;br&gt;&lt;/font&gt;" style="rounded=0;whiteSpace=wrap;html=1;fillColor=#dae8fc;strokeColor=#6c8ebf;" vertex="1" parent="1">
          <mxGeometry x="1640" y="205" width="190" height="90" as="geometry" />
        </mxCell>
        <mxCell id="gf5TVTyWnI4lNd_eXOsV-47" value="" style="endArrow=classic;html=1;rounded=0;entryX=0;entryY=0.5;entryDx=0;entryDy=0;exitX=1;exitY=0.75;exitDx=0;exitDy=0;" edge="1" parent="1" source="gf5TVTyWnI4lNd_eXOsV-48" target="gf5TVTyWnI4lNd_eXOsV-3">
          <mxGeometry width="50" height="50" relative="1" as="geometry">
            <mxPoint x="510" y="410" as="sourcePoint" />
            <mxPoint x="1320" y="635" as="targetPoint" />
          </mxGeometry>
        </mxCell>
        <mxCell id="gf5TVTyWnI4lNd_eXOsV-48" value="" style="shape=actor;whiteSpace=wrap;html=1;" vertex="1" parent="1">
          <mxGeometry x="360" y="289" width="120" height="160" as="geometry" />
        </mxCell>
      </root>
    </mxGraphModel>
  </diagram>
</mxfile>
